{
  "accessors": [
    {
      "bufferView": 2,
      "componentType": 5126,
      "count": 7198,
      "max": [
        0.99995356798172,
        4.594199180603027,
        0.9999999403953552
      ],
      "min": [
        -0.99995356798172,
        -0.9998143911361694,
        -0.9999999403953552
      ],
      "type": "VEC3"
    },
    {
      "bufferView": 2,
      "byteOffset": 86376,
      "componentType": 5126,
      "count": 7198,
      "max": [
        1.0,
        1.0,
        1.0
      ],
      "min": [
        -1.0,
        -1.0,
        -0.9990307688713074
      ],
      "type": "VEC3"
    },
    {
      "bufferView": 1,
      "componentType": 5126,
      "count": 7198,
      "max": [
        1.0,
        1.0
      ],
      "min": [
        -9.899958968162537e-07,
        0.0
      ],
      "type": "VEC2"
    },
    {
      "bufferView": 0,
      "componentType": 5125,
      "count": 23205,
      "type": "SCALAR"
    },
    {
      "bufferView": 2,
      "byteOffset": 172752,
      "componentType": 5126,
      "count": 45035,
      "max": [
        1.0243602991104126,
        4.618341445922852,
        0.5212095975875854
      ],
      "min": [
        -1.0243602991104126,
        -1.0242210626602173,
        -0.5264732837677002
      ],
      "type": "VEC3"
    },
    {
      "bufferView": 2,
      "byteOffset": 713172,
      "componentType": 5126,
      "count": 45035,
      "max": [
        1.0,
        1.0,
        1.0
      ],
      "min": [
        -1.0,
        -1.0,
        -1.0
      ],
      "type": "VEC3"
    },
    {
      "bufferView": 1,
      "byteOffset": 57584,
      "componentType": 5126,
      "count": 45035,
      "max": [
        1.001076579093933,
        0.8803025484085083
      ],
      "min": [
        -0.0016290778294205666,
        0.0
      ],
      "type": "VEC2"
    },
    {
      "bufferView": 1,
      "byteOffset": 417864,
      "componentType": 5126,
      "count": 45035,
      "max": [
        1.001076579093933,
        0.8803025484085083
      ],
      "min": [
        -0.0016290778294205666,
        0.0
      ],
      "type": "VEC2"
    },
    {
      "bufferView": 0,
      "byteOffset": 92820,
      "componentType": 5125,
      "count": 152154,
      "type": "SCALAR"
    },
    {
      "bufferView": 2,
      "byteOffset": 1253592,
      "componentType": 5126,
      "count": 3152,
      "max": [
        1.0994348526000977,
        1.100000023841858,
        0.07174086570739746
      ],
      "min": [
        -1.0994348526000977,
        -1.100000023841858,
        0.0
      ],
      "type": "VEC3"
    },
    {
      "bufferView": 2,
      "byteOffset": 1291416,
      "componentType": 5126,
      "count": 3152,
      "max": [
        0.9909268021583557,
        0.9914365410804749,
        0.9979473352432251
      ],
      "min": [
        -0.9909268021583557,
        -0.9914365410804749,
        -0.9979473352432251
      ],
      "type": "VEC3"
    },
    {
      "bufferView": 1,
      "byteOffset": 778144,
      "componentType": 5126,
      "count": 3152,
      "max": [
        0.9997431039810181,
        1.0
      ],
      "min": [
        0.0002568960189819336,
        0.0
      ],
      "type": "VEC2"
    },
    {
      "bufferView": 0,
      "byteOffset": 701436,
      "componentType": 5125,
      "count": 15288,
      "type": "SCALAR"
    },
    {
      "bufferView": 2,
      "byteOffset": 1329240,
      "componentType": 5126,
      "count": 2212,
      "max": [
        1.0997825860977173,
        1.100000023841858,
        0.10689471662044525
      ],
      "min": [
        -1.0997825860977173,
        -1.100000023841858,
        0.0
      ],
      "type": "VEC3"
    },
    {
      "bufferView": 2,
      "byteOffset": 1355784,
      "componentType": 5126,
      "count": 2212,
      "max": [
        0.9912445545196533,
        0.9914405941963196,
        0.9978055357933044
      ],
      "min": [
        -0.9912445545196533,
        -0.9914405941963196,
        -0.9978055357933044
      ],
      "type": "VEC3"
    },
    {
      "bufferView": 1,
      "byteOffset": 803360,
      "componentType": 5126,
      "count": 2212,
      "max": [
        0.9999011754989624,
        1.0
      ],
      "min": [
        9.885430335998535e-05,
        0.0
      ],
      "type": "VEC2"
    },
    {
      "bufferView": 1,
      "byteOffset": 821056,
      "componentType": 5126,
      "count": 2212,
      "max": [
        0.9999011754989624,
        1.0
      ],
      "min": [
        9.885430335998535e-05,
        0.0
      ],
      "type": "VEC2"
    },
    {
      "bufferView": 0,
      "byteOffset": 762588,
      "componentType": 5125,
      "count": 12312,
      "type": "SCALAR"
    },
    {
      "bufferView": 2,
      "byteOffset": 1382328,
      "componentType": 5126,
      "count": 2280,
      "max": [
        1.0997825860977173,
        1.100000023841858,
        0.08825469762086868
      ],
      "min": [
        -1.0997825860977173,
        -1.100000023841858,
        0.0
      ],
      "type": "VEC3"
    },
    {
      "bufferView": 2,
      "byteOffset": 1409688,
      "componentType": 5126,
      "count": 2280,
      "max": [
        0.9976636171340942,
        0.9978618621826172,
        0.997805655002594
      ],
      "min": [
        -0.9976636171340942,
        -0.9978618621826172,
        -0.997805655002594
      ],
      "type": "VEC3"
    },
    {
      "bufferView": 1,
      "byteOffset": 838752,
      "componentType": 5126,
      "count": 2280,
      "max": [
        0.9999011754989624,
        1.0
      ],
      "min": [
        9.885430335998535e-05,
        0.0
      ],
      "type": "VEC2"
    },
    {
      "bufferView": 0,
      "byteOffset": 811836,
      "componentType": 5125,
      "count": 13260,
      "type": "SCALAR"
    },
    {
      "bufferView": 2,
      "byteOffset": 1437048,
      "componentType": 5126,
      "count": 2280,
      "max": [
        1.0997825860977173,
        1.100000023841858,
        0.08825469762086868
      ],
      "min": [
        -1.0997825860977173,
        -1.100000023841858,
        0.0
      ],
      "type": "VEC3"
    },
    {
      "bufferView": 2,
      "byteOffset": 1464408,
      "componentType": 5126,
      "count": 2280,
      "max": [
        0.9976636171340942,
        0.9978618621826172,
        0.997805655002594
      ],
      "min": [
        -0.9976636171340942,
        -0.9978618621826172,
        -0.997805655002594
      ],
      "type": "VEC3"
    },
    {
      "bufferView": 1,
      "byteOffset": 856992,
      "componentType": 5126,
      "count": 2280,
      "max": [
        0.9999011754989624,
        1.0
      ],
      "min": [
        9.885430335998535e-05,
        0.0
      ],
      "type": "VEC2"
    },
    {
      "bufferView": 0,
      "byteOffset": 864876,
      "componentType": 5125,
      "count": 13260,
      "type": "SCALAR"
    },
    {
      "bufferView": 2,
      "byteOffset": 1491768,
      "componentType": 5126,
      "count": 334,
      "max": [
        0.99995356798172,
        4.594199180603027,
        0.31212368607521057
      ],
      "min": [
        -0.99995356798172,
        -0.9998143911361694,
        -0.31212368607521057
      ],
      "type": "VEC3"
    },
    {
      "bufferView": 2,
      "byteOffset": 1495776,
      "componentType": 5126,
      "count": 334,
      "max": [
        0.9998962879180908,
        1.0,
        0.0
      ],
      "min": [
        -0.9998962879180908,
        -0.9998142719268799,
        0.0
      ],
      "type": "VEC3"
    },
    {
      "bufferView": 1,
      "byteOffset": 875232,
      "componentType": 5126,
      "count": 334,
      "max": [
        1.0,
        0.8280309438705444
      ],
      "min": [
        -9.899958968162537e-07,
        0.6719690561294556
      ],
      "type": "VEC2"
    },
    {
      "bufferView": 0,
      "byteOffset": 917916,
      "componentType": 5125,
      "count": 978,
      "type": "SCALAR"
    }
  ],
  "asset": {
    "extras": {
      "author": "Mazen Essam (https://sketchfab.com/MazenEssam2002)",
      "license": "CC-BY-4.0 (http://creativecommons.org/licenses/by/4.0/)",
      "source": "https://sketchfab.com/3d-models/remote-control-5a2f44574fcf47ee83a1b707c7dd6136",
      "title": "Remote Control"
    },
    "generator": "Sketchfab-15.29.0",
    "version": "2.0"
  },
  "bufferViews": [
    {
      "buffer": 0,
      "byteLength": 921828,
      "name": "floatBufferViews",
      "target": 34963
    },
    {
      "buffer": 0,
      "byteLength": 877904,
      "byteOffset": 921828,
      "byteStride": 8,
      "name": "floatBufferViews",
      "target": 34962
    },
    {
      "buffer": 0,
      "byteLength": 1499784,
      "byteOffset": 1799732,
      "byteStride": 12,
      "name": "floatBufferViews",
      "target": 34962
    }
  ],
  "buffers": [
    {
      "byteLength": 3299516,
      "uri": "scene.bin"
    }
  ],
  "extensionsUsed": [
    "KHR_materials_emissive_strength"
  ],
  "materials": [
    {
      "doubleSided": true,
      "name": "Material.003",
      "pbrMetallicRoughness": {
        "baseColorFactor": [
          0.390079,
          0.390079,
          0.390079,
          1.0
        ],
        "metallicFactor": 0.0,
        "roughnessFactor": 0.2971437627238483
      }
    },
    {
      "doubleSided": true,
      "name": "Material.004",
      "pbrMetallicRoughness": {
        "baseColorFactor": [
          0.8,
          0.742278,
          0.0,
          1.0
        ],
        "roughnessFactor": 0.28495324938133143
      }
    },
    {
      "doubleSided": true,
      "name": "Material.002",
      "pbrMetallicRoughness": {
        "baseColorFactor": [
          0.0,
          0.0,
          0.0,
          1.0
        ],
        "metallicFactor": 0.0,
        "roughnessFactor": 0.0
      }
    },
    {
      "doubleSided": true,
      "name": "Material.001",
      "pbrMetallicRoughness": {
        "baseColorFactor": [
          0.0,
          0.0,
          0.0,
          1.0
        ],
        "metallicFactor": 0.0,
        "roughnessFactor": 0.0
      }
    },
    {
      "doubleSided": true,
      "emissiveFactor": [
        1.0,
        0.7544910000000002,
        0.0
      ],
      "extensions": {
        "KHR_materials_emissive_strength": {
          "emissiveStrength": 3.7
        }
      },
      "name": "Material.005",
      "pbrMetallicRoughness": {
        "baseColorFactor": [
          1.0,
          0.7409556523337896,
          0.0,
          1.0
        ],
        "metallicFactor": 0.0,
        "roughnessFactor": 0.7718055169989477
      }
    },
    {
      "doubleSided": true,
      "name": "Material.007",
      "pbrMetallicRoughness": {
        "baseColorFactor": [
          0.0,
          0.0,
          0.0,
          1.0
        ],
        "metallicFactor": 0.0,
        "roughnessFactor": 0.0
      }
    }
  ],
  "meshes": [
    {
      "name": "body_Material.003_0",
      "primitives": [
        {
          "attributes": {
            "NORMAL": 1,
            "POSITION": 0,
            "TEXCOORD_0": 2
          },
          "indices": 3,
          "material": 0,
          "mode": 4
        }
      ]
    },
    {
      "name": "golden part_Material.004_0",
      "primitives": [
        {
          "attributes": {
            "NORMAL": 5,
            "POSITION": 4,
            "TEXCOORD_0": 6,
            "TEXCOORD_1": 7
          },
          "indices": 8,
          "material": 1,
          "mode": 4
        }
      ]
    },
    {
      "name": "upper button_Material.002_0",
      "primitives": [
        {
          "attributes": {
            "NORMAL": 10,
            "POSITION": 9,
            "TEXCOORD_0": 11
          },
          "indices": 12,
          "material": 2,
          "mode": 4
        }
      ]
    },
    {
      "name": "lower button_Material.001_0",
      "primitives": [
        {
          "attributes": {
            "NORMAL": 14,
            "POSITION": 13,
            "TEXCOORD_0": 15,
            "TEXCOORD_1": 16
          },
          "indices": 17,
          "material": 3,
          "mode": 4
        }
      ]
    },
    {
      "name": "Circle.002_Material.005_0",
      "primitives": [
        {
          "attributes": {
            "NORMAL": 19,
            "POSITION": 18,
            "TEXCOORD_0": 20
          },
          "indices": 21,
          "material": 4,
          "mode": 4
        }
      ]
    },
    {
      "name": "Circle.003_Material.005_0",
      "primitives": [
        {
          "attributes": {
            "NORMAL": 23,
            "POSITION": 22,
            "TEXCOORD_0": 24
          },
          "indices": 25,
          "material": 4,
          "mode": 4
        }
      ]
    },
    {
      "name": "black part_Material.007_0",
      "primitives": [
        {
          "attributes": {
            "NORMAL": 27,
            "POSITION": 26,
            "TEXCOORD_0": 28
          },
          "indices": 29,
          "material": 5,
          "mode": 4
        }
      ]
    }
  ],
  "nodes": [
    {
      "children": [
        1
      ],
      "matrix": [
        1.0,
        0.0,
        0.0,
        0.0,
        0.0,
        2.220446049250313e-16,
        -1.0,
        0.0,
        0.0,
        1.0,
        2.220446049250313e-16,
        0.0,
        0.0,
        0.0,
        0.0,
        1.0
      ],
      "name": "Sketchfab_model"
    },
    {
      "children": [
        2
      ],
      "matrix": [
        0.009999999776482582,
        0.0,
        0.0,
        0.0,
        0.0,
        0.0,
        0.009999999776482582,
        0.0,
        0.0,
        -0.009999999776482582,
        0.0,
        0.0,
        0.0,
        0.0,
        0.0,
        1.0
      ],
      "name": "628007d91f4a4026b55c72f05e2cf3e6.fbx"
    },
    {
      "children": [
        3,
        5,
        7,
        9,
        11,
        13,
        15
      ],
      "name": "RootNode"
    },
    {
      "children": [
        4
      ],
      "matrix": [
        237.55662536621094,
        0.0,
        0.0,
        0.0,
        0.0,
        -3.10772414066336e-05,
        -190.75074768066153,
        0.0,
        0.0,
        58.98008346557539,
        -9.609075268798592e-06,
        0.0,
        0.0,
        0.0,
        355.1744079589844,
        1.0
      ],
      "name": "body"
    },
    {
      "mesh": 0,
      "name": "body_Material.003_0"
    },
    {
      "children": [
        6
      ],
      "matrix": [
        237.55662536621094,
        0.0,
        0.0,
        0.0,
        0.0,
        -3.10772414066336e-05,
        -190.75074768066153,
        0.0,
        0.0,
        58.98008346557539,
        -9.609075268798592e-06,
        0.0,
        0.0,
        0.0,
        355.1744079589844,
        1.0
      ],
      "name": "golden part"
    },
    {
      "mesh": 1,
      "name": "golden part_Material.004_0"
    },
    {
      "children": [
        8
      ],
      "matrix": [
        211.38153076171875,
        0.0,
        0.0,
        0.0,
        0.0,
        -3.51722592461141e-05,
        -215.88578796386435,
        0.0,
        0.0,
        214.6611175537081,
        -3.497273511086037e-05,
        0.0,
        0.0,
        51.06466293334961,
        -282.5704345703125,
        1.0
      ],
      "name": "upper button"
    },
    {
      "mesh": 2,
      "name": "upper button_Material.002_0"
    },
    {
      "children": [
        10
      ],
      "matrix": [
        110.46617889404297,
        0.0,
        0.0,
        0.0,
        0.0,
        -1.7997224915237067e-05,
        -110.4661788940415,
        0.0,
        0.0,
        110.4661788940415,
        -1.7997224915237067e-05,
        0.0,
        0.0,
        53.2841796875,
        293.654296875,
        1.0
      ],
      "name": "lower button"
    },
    {
      "mesh": 3,
      "name": "lower button_Material.001_0"
    },
    {
      "children": [
        12
      ],
      "matrix": [
        6.852513313293457,
        0.0,
        0.0,
        0.0,
        -0.0,
        -1.1164161245433397e-06,
        -6.852513313293366,
        0.0,
        0.0,
        6.852513313293366,
        -1.1164161245433397e-06,
        0.0,
        -8.2357816696167,
        58.87937545776367,
        54.075767517089844,
        1.0
      ],
      "name": "Circle.002"
    },
    {
      "mesh": 4,
      "name": "Circle.002_Material.005_0"
    },
    {
      "children": [
        14
      ],
      "matrix": [
        6.852513313293457,
        0.0,
        0.0,
        0.0,
        0.0,
        -1.1164161245433397e-06,
        -6.852513313293366,
        0.0,
        0.0,
        6.852513313293366,
        -1.1164161245433397e-06,
        0.0,
        10.471887588500977,
        58.87937545776367,
        54.075767517089844,
        1.0
      ],
      "name": "Circle.003"
    },
    {
      "mesh": 5,
      "name": "Circle.003_Material.005_0"
    },
    {
      "children": [
        16
      ],
      "matrix": [
        237.55662536621094,
        0.0,
        0.0,
        0.0,
        0.0,
        -3.10772414066336e-05,
        -190.75074768066153,
        0.0,
        0.0,
        58.98008346557539,
        -9.609075268798592e-06,
        0.0,
        0.0,
        0.0,
        355.1744079589844,
        1.0
      ],
      "name": "black part"
    },
    {
      "mesh": 6,
      "name": "black part_Material.007_0"
    }
  ],
  "scene": 0,
  "scenes": [
    {
      "name": "Sketchfab_Scene",
      "nodes": [
        0
      ]
    }
  ]
}
